<svg width="80" height="80" viewBox="0 0 80 80" fill="none" xmlns="http://www.w3.org/2000/svg">
<g clip-path="url(#clip0_1650_478)">
<path d="M79.0028 16.0985L79.0028 16.9995L80.0027 16.9995L80.0027 10.055C80.0027 10.055 79.9426 9.06165 79.8028 8.43946C79.6553 7.78374 79.2528 6.79953 79.2528 6.79953L78.3027 7.13292C78.3027 7.13292 78.4263 7.37729 78.4929 7.5384C78.5644 7.71152 78.5945 7.81184 78.6529 7.98893C78.6812 8.0748 78.6978 8.12278 78.7229 8.20946C78.7487 8.29874 78.7829 8.43946 78.7829 8.43946L78.8204 8.63963C78.8204 8.63963 78.8467 8.76155 78.8629 8.8398C78.879 8.91789 78.9029 9.03997 78.9029 9.03997L78.9379 9.24014C78.9379 9.24014 78.9701 9.45586 78.9828 9.59479C78.9955 9.73299 79.0028 9.94943 79.0028 9.94943L79.0028 16.0985Z" fill="url(#paint0_linear_1650_478)"/>
<path d="M65.6042 0.999594L64.7031 0.999594L64.7031 -0.000289321L71.6476 -0.000289928C71.6476 -0.000289928 72.641 0.0598146 73.2632 0.199686C73.9189 0.347094 74.9031 0.749622 74.9031 0.749622L74.5697 1.69971C74.5697 1.69971 74.3253 1.57609 74.1642 1.50953C73.9911 1.43801 73.8908 1.40792 73.7137 1.34955C73.6278 1.32125 73.5799 1.30464 73.4932 1.27956C73.4039 1.25373 73.2632 1.21957 73.2632 1.21957L73.063 1.18207C73.063 1.18207 72.9411 1.1557 72.8628 1.13958C72.7847 1.12349 72.6627 1.09958 72.6627 1.09958L72.4625 1.06459C72.4625 1.06459 72.2468 1.0323 72.1079 1.01959C71.9696 1.00695 71.7532 0.999593 71.7532 0.999593L65.6042 0.999594Z" fill="url(#paint1_linear_1650_478)"/>
<path d="M63.9011 78.9994L63 78.9994L63 79.9993L69.9445 79.9993C69.9445 79.9993 70.9379 79.9392 71.5601 79.7993C72.2158 79.6519 73.2 79.2494 73.2 79.2494L72.8666 78.2993C72.8666 78.2993 72.6222 78.4229 72.4611 78.4895C72.288 78.561 72.1877 78.5911 72.0106 78.6495C71.9247 78.6778 71.8767 78.6944 71.7901 78.7195C71.7008 78.7453 71.5601 78.7795 71.5601 78.7795L71.3599 78.817C71.3599 78.817 71.238 78.8433 71.1597 78.8594C71.0816 78.8755 70.9595 78.8994 70.9595 78.8994L70.7594 78.9344C70.7594 78.9344 70.5437 78.9667 70.4047 78.9794C70.2665 78.9921 70.0501 78.9994 70.0501 78.9994L63.9011 78.9994Z" fill="url(#paint2_linear_1650_478)"/>
<path d="M78.9999 65.6013L78.9999 64.7002L79.9998 64.7002L79.9998 71.6447C79.9998 71.6447 79.9397 72.6381 79.7998 73.2603C79.6524 73.916 79.2499 74.9002 79.2499 74.9002L78.2998 74.5668C78.2998 74.5668 78.4234 74.3224 78.49 74.1613C78.5615 73.9882 78.5916 73.8879 78.65 73.7108C78.6783 73.6249 78.6949 73.5769 78.72 73.4902C78.7458 73.401 78.7799 73.2603 78.7799 73.2603L78.8174 73.0601C78.8174 73.0601 78.8438 72.9382 78.8599 72.8599C78.876 72.7818 78.8999 72.6597 78.8999 72.6597L78.9349 72.4596C78.9349 72.4596 78.9672 72.2439 78.9799 72.1049C78.9926 71.9667 78.9999 71.7503 78.9999 71.7503L78.9999 65.6013Z" fill="url(#paint3_linear_1650_478)"/>
<path d="M1.00008 63.9011L1.00008 63L0.000198603 63L0.000197996 69.9445C0.000197996 69.9445 0.0603025 70.9379 0.200175 71.5601C0.347582 72.2158 0.75011 73.2 0.75011 73.2L1.70019 72.8666C1.70019 72.8666 1.57658 72.6222 1.51002 72.4611C1.4385 72.288 1.40841 72.1877 1.35004 72.0106C1.32174 71.9247 1.30513 71.8767 1.28005 71.7901C1.25421 71.7008 1.22006 71.5601 1.22006 71.5601L1.18256 71.3599C1.18256 71.3599 1.15619 71.238 1.14006 71.1597C1.12397 71.0816 1.10007 70.9595 1.10007 70.9595L1.06507 70.7594C1.06507 70.7594 1.03278 70.5437 1.02008 70.4047C1.00744 70.2665 1.00008 70.0501 1.00008 70.0501L1.00008 63.9011Z" fill="url(#paint4_linear_1650_478)"/>
<path d="M14.3978 78.9999L15.2988 78.9999L15.2988 79.9998L8.35434 79.9998C8.35434 79.9998 7.36097 79.9397 6.73877 79.7998C6.08306 79.6524 5.09885 79.2499 5.09885 79.2499L5.43224 78.2998C5.43224 78.2998 5.67661 78.4234 5.83772 78.49C6.01084 78.5615 6.11116 78.5916 6.28824 78.65C6.37411 78.6783 6.4221 78.6949 6.50878 78.72C6.59806 78.7458 6.73877 78.7799 6.73877 78.7799L6.93894 78.8174C6.93894 78.8174 7.06086 78.8438 7.13911 78.8599C7.21721 78.876 7.33928 78.8999 7.33928 78.8999L7.53945 78.9349C7.53945 78.9349 7.75517 78.9672 7.8941 78.9799C8.03231 78.9926 8.24875 78.9999 8.24875 78.9999L14.3978 78.9999Z" fill="url(#paint5_linear_1650_478)"/>
<path d="M49 79L31 79.0005V80H49V79Z" fill="url(#paint6_linear_1650_478)"/>
<path d="M49 0L31 0.000532444V1H49V0Z" fill="url(#paint7_linear_1650_478)"/>
<path d="M0.999999 49L0.999468 31L7.7486e-07 31L-1.19446e-08 49L0.999999 49Z" fill="url(#paint8_linear_1650_478)"/>
<path d="M80 51L79.9995 32L79 32L79 51L80 51Z" fill="url(#paint9_linear_1650_478)"/>
<path d="M16.0989 1.00008L17 1.00008L17 0.000198603L10.0555 0.00019852C10.0555 0.00019852 9.06214 0.0603031 8.43995 0.200175C7.78423 0.347583 6.80002 0.750111 6.80002 0.750111L7.13341 1.7002C7.13341 1.7002 7.37778 1.57658 7.53889 1.51002C7.71201 1.4385 7.81233 1.40841 7.98942 1.35004C8.07528 1.32174 8.12327 1.30513 8.20995 1.28005C8.29923 1.25421 8.43995 1.22006 8.43995 1.22006L8.64012 1.18256C8.64012 1.18256 8.76203 1.15619 8.84029 1.14007C8.91838 1.12398 9.04046 1.10007 9.04046 1.10007L9.24063 1.06507C9.24063 1.06507 9.45634 1.03278 9.59527 1.02008C9.73348 1.00744 9.94992 1.00008 9.94992 1.00008L16.0989 1.00008Z" fill="url(#paint10_linear_1650_478)"/>
<path d="M1.00008 14.3983L1.00008 15.2993L0.00019896 15.2993L0.000198436 8.35483C0.000198436 8.35483 0.060303 7.36145 0.200175 6.73926C0.347583 6.08355 0.75011 5.09934 0.75011 5.09934L1.70019 5.43273C1.70019 5.43273 1.57658 5.6771 1.51002 5.8382C1.4385 6.01132 1.40841 6.11165 1.35004 6.28873C1.32174 6.3746 1.30513 6.42259 1.28005 6.50926C1.25421 6.59855 1.22006 6.73926 1.22006 6.73926L1.18256 6.93943C1.18256 6.93943 1.15619 7.06135 1.14006 7.1396C1.12397 7.2177 1.10007 7.33977 1.10007 7.33977L1.06507 7.53994C1.06507 7.53994 1.03278 7.75566 1.02008 7.89459C1.00744 8.0328 1.00008 8.24924 1.00008 8.24924L1.00008 14.3983Z" fill="url(#paint11_linear_1650_478)"/>
</g>
<defs>
<linearGradient id="paint0_linear_1650_478" x1="78.3027" y1="16.9995" x2="81.6108" y2="16.4482" gradientUnits="userSpaceOnUse">
<stop stop-color="#9367D1"/>
<stop offset="1" stop-color="#D167BF"/>
</linearGradient>
<linearGradient id="paint1_linear_1650_478" x1="64.7031" y1="1.69971" x2="65.2545" y2="-1.60839" gradientUnits="userSpaceOnUse">
<stop stop-color="#9367D1"/>
<stop offset="1" stop-color="#D167BF"/>
</linearGradient>
<linearGradient id="paint2_linear_1650_478" x1="63" y1="78.2993" x2="63.5514" y2="81.6074" gradientUnits="userSpaceOnUse">
<stop stop-color="#9367D1"/>
<stop offset="1" stop-color="#D167BF"/>
</linearGradient>
<linearGradient id="paint3_linear_1650_478" x1="78.2998" y1="64.7002" x2="81.6079" y2="65.2515" gradientUnits="userSpaceOnUse">
<stop stop-color="#9367D1"/>
<stop offset="1" stop-color="#D167BF"/>
</linearGradient>
<linearGradient id="paint4_linear_1650_478" x1="1.7002" y1="63" x2="-1.60791" y2="63.5513" gradientUnits="userSpaceOnUse">
<stop stop-color="#9367D1"/>
<stop offset="1" stop-color="#D167BF"/>
</linearGradient>
<linearGradient id="paint5_linear_1650_478" x1="15.2988" y1="78.2998" x2="14.7475" y2="81.6079" gradientUnits="userSpaceOnUse">
<stop stop-color="#9367D1"/>
<stop offset="1" stop-color="#D167BF"/>
</linearGradient>
<linearGradient id="paint6_linear_1650_478" x1="31" y1="79" x2="31.1108" y2="80.9938" gradientUnits="userSpaceOnUse">
<stop stop-color="#9367D1"/>
<stop offset="1" stop-color="#D167BF"/>
</linearGradient>
<linearGradient id="paint7_linear_1650_478" x1="31" y1="0" x2="31.1108" y2="1.99385" gradientUnits="userSpaceOnUse">
<stop stop-color="#9367D1"/>
<stop offset="1" stop-color="#D167BF"/>
</linearGradient>
<linearGradient id="paint8_linear_1650_478" x1="1" y1="31" x2="-0.993845" y2="31.1108" gradientUnits="userSpaceOnUse">
<stop stop-color="#9367D1"/>
<stop offset="1" stop-color="#D167BF"/>
</linearGradient>
<linearGradient id="paint9_linear_1650_478" x1="80" y1="32" x2="78.0055" y2="32.105" gradientUnits="userSpaceOnUse">
<stop stop-color="#9367D1"/>
<stop offset="1" stop-color="#D167BF"/>
</linearGradient>
<linearGradient id="paint10_linear_1650_478" x1="17" y1="1.7002" x2="16.4486" y2="-1.60791" gradientUnits="userSpaceOnUse">
<stop stop-color="#9367D1"/>
<stop offset="1" stop-color="#D167BF"/>
</linearGradient>
<linearGradient id="paint11_linear_1650_478" x1="1.7002" y1="15.2993" x2="-1.60791" y2="14.748" gradientUnits="userSpaceOnUse">
<stop stop-color="#9367D1"/>
<stop offset="1" stop-color="#D167BF"/>
</linearGradient>
<clipPath id="clip0_1650_478">
<rect width="80" height="80" fill="white"/>
</clipPath>
</defs>
</svg>
